Coordinates
version=1
nRows=17
nColumns=24
inDegrees=yes

Units are S.I. units (second, meters, Newtons, ...)
Angles are in degrees.

endheader
time	pelvis_tilt	pelvis_list	pelvis_rotation	pelvis_tx	pelvis_ty	pelvis_tz	hip_flexion_r	hip_adduction_r	hip_rotation_r	knee_angle_r	ankle_angle_r	subtalar_angle_r	mtp_angle_r	hip_flexion_l	hip_adduction_l	hip_rotation_l	knee_angle_l	ankle_angle_l	subtalar_angle_l	mtp_angle_l	lumbar_extension	lumbar_bending	lumbar_rotation
      1.04583333	      1.27204101	     -5.21555544	     -2.24243659	     -0.16612995	      1.05589556	      0.36029144	    -16.09268090	      9.67722336	      0.41713904	     -2.70905412	      5.52863858	    -10.82005553	      3.00146542	     18.43301672	     -3.04018024	     -0.68694238	      3.35148876	     -0.69178331	     -6.61750331	      1.50917578	      1.39569219	      9.64505773	      1.28409541
      1.05000000	      1.22124108	     -5.26868041	     -2.24811800	     -0.16067371	      1.05520577	      0.35999062	    -16.14346556	      9.70313602	      0.44606910	     -3.15514927	      5.51419023	    -10.86259794	      3.00219881	     18.35856160	     -3.02927885	     -0.70139456	      3.61688782	     -0.69853386	     -6.49771563	      1.50688665	      1.40754962	      9.63138415	      1.27461095
      1.05416667	      1.18476134	     -5.23785753	     -2.25886157	     -0.15481465	      1.05460860	      0.35994892	    -16.26814561	      9.65552907	      0.65889962	     -3.51182972	      5.68022293	    -11.05086289	      3.01124028	     18.26244454	     -2.94485635	     -1.10454038	      3.83918226	     -1.08459109	     -5.75559264	      1.48820666	      1.50394500	      9.57693425	      1.23814116
      1.05833333	      1.15406662	     -5.27970832	     -2.24772644	     -0.14927735	      1.05401444	      0.35970416	    -16.31938366	      9.67878806	      0.70952837	     -3.99527712	      5.65171009	    -11.09470486	      3.01253883	     18.17655745	     -2.92746379	     -1.10222207	      3.95043679	     -1.10042121	     -5.65251063	      1.48802053	      1.54197517	      9.54956759	      1.23591457
      1.06250000	      1.12363171	     -5.28462935	     -2.24413940	     -0.14359332	      1.05347030	      0.35949790	    -16.37132729	      9.66135406	      0.77505339	     -4.48826943	      5.65214258	    -11.16141650	      3.01462611	     18.07670731	     -2.87662743	     -1.11018720	      4.01897389	     -1.22409111	     -5.50570917	      1.48753503	      1.60423058	      9.52119358	      1.23214128
      1.06666667	      1.10252223	     -5.28010977	     -2.23055212	     -0.13789072	      1.05297647	      0.35932007	    -16.41811645	      9.63823739	      0.84478048	     -5.01129263	      5.66496701	    -11.24094384	      3.01755320	     17.97882725	     -2.81845471	     -1.13837152	      4.00802689	     -1.43899154	     -5.34774373	      1.48726379	      1.68181572	      9.46510574	      1.23132318
      1.07083333	      1.03356487	     -5.22096131	     -2.20180682	     -0.13192817	      1.05246833	      0.35920729	    -16.43161331	      9.56692500	      0.97024389	     -5.51232840	      5.72796197	    -11.41210846	      3.02814552	     17.93815391	     -2.70062234	     -1.35299205	      3.93960995	     -2.04583138	     -5.03160176	      1.49130065	      1.75664379	      9.35405684	      1.21437363
      1.07500000	      1.03380385	     -5.21906546	     -2.17362487	     -0.12623140	      1.05207352	      0.35903058	    -16.46582779	      9.54965450	      1.04393100	     -6.09604470	      5.68559595	    -11.44766691	      3.03117480	     17.83207014	     -2.65124197	     -1.32547424	      3.78926129	     -2.13905466	     -4.97999829	      1.49531838	      1.83529707	      9.29935697	      1.21837254
      1.07916667	      0.96880247	     -5.16166264	     -2.17089200	     -0.12030773	      1.05166594	      0.35890452	    -16.42101395	      9.46793159	      1.06939499	     -6.71068296	      5.63544027	    -11.54346174	      3.04698327	     17.78152642	     -2.55247552	     -1.41569102	      3.62578598	     -2.66527456	     -4.87132349	      1.51323384	      1.92041847	      9.16413311	      1.20835531
      1.08333333	      0.93531604	     -5.11356894	     -2.16179304	     -0.11443391	      1.05134271	      0.35873074	    -16.38275566	      9.39052188	      1.07286062	     -7.37129572	      5.55734405	    -11.57275444	      3.06449354	     17.69547879	     -2.46593114	     -1.39085632	      3.41469499	     -3.00991841	     -4.86983062	      1.53649555	      2.00753679	      9.06954067	      1.19936327
      1.08750000	      0.96079621	     -5.08439648	     -2.12684918	     -0.10865798	      1.05112772	      0.35856649	    -16.38678814	      9.33880741	      1.10157238	     -8.06149073	      5.49297008	    -11.58252065	      3.07003356	     17.56276225	     -2.40342103	     -1.32261957	      3.14024178	     -3.14339776	     -4.86621131	      1.54330168	      2.09025162	      8.99034171	      1.20782114
      1.09166667	      0.89730552	     -4.98069885	     -2.07631904	     -0.10260062	      1.05085326	      0.35826781	    -16.26901967	      9.20384527	      0.87826969	     -8.80274128	      5.32926777	    -11.50636319	      3.09847633	     17.51030727	     -2.24403882	     -1.30483929	      2.87788923	     -3.77991748	     -4.99663414	      1.57169908	      2.12883439	      8.79778119	      1.20367020
      1.09583333	      0.86370710	     -4.88642734	     -2.05298731	     -0.09661245	      1.05068427	      0.35797355	    -16.15524064	      9.06247471	      0.70380288	     -9.59915211	      5.17301197	    -11.36335835	      3.13428078	     17.41007710	     -2.11063817	     -1.17108288	      2.60677780	     -4.24281877	     -5.21125399	      1.60837401	      2.21770121	      8.65766749	      1.18756390
      1.10000000	      0.92347877	     -4.83969731	     -2.00589755	     -0.09085472	      1.05067390	      0.35779441	    -16.12438224	      8.98507301	      0.68974773	    -10.41288714	      5.08039575	    -11.33226241	      3.14444993	     17.24741067	     -2.04479535	     -1.07372359	      2.25219440	     -4.38283537	     -5.25503175	      1.61805400	      2.32078546	      8.55691440	      1.19704773
      1.10416667	      0.86278199	     -4.66190993	     -1.88633853	     -0.08458571	      1.05054750	      0.35704819	    -15.93271336	      8.73640384	      0.15254015	    -11.28659299	      4.83371762	    -10.59596574	      3.30200746	     17.13326946	     -1.77387994	     -0.58250616	      2.04352540	     -5.39732611	     -6.23678403	      1.75310358	      2.51986413	      8.36079729	      1.07579937
      1.10833333	      0.86123988	     -4.56083252	     -1.82224925	     -0.07870759	      1.05056125	      0.35668307	    -15.76292458	      8.58455577	     -0.13013291	    -12.23022184	      4.67816164	    -10.54441409	      3.33947275	     17.04534948	     -1.63303053	     -0.58287761	      1.64222175	     -5.57667994	     -6.38727505	      1.78475090	      2.45283569	      8.16620851	      1.06907626
      1.11250000	      0.89906841	     -4.42073322	     -1.66794460	     -0.07267419	      1.05065308	      0.35612464	    -15.62529473	      8.39699477	     -0.57517796	    -13.17396715	      4.29122442	    -10.14140210	      3.43280478	     16.90192291	     -1.42366039	     -0.42818911	      1.27379111	     -6.10724007	     -6.70899597	      1.84972872	      2.57808190	      7.91290180	      1.05160578
